<?xml version="1.0" encoding="UTF-8" standalone="no"?>
<!-- Created with Inkscape (http://www.inkscape.org/) -->

<svg
   width="512"
   height="512"
   viewBox="0 0 512 512"
   version="1.1"
   id="svg1"
   xml:space="preserve"
   inkscape:version="1.3.2 (091e20e, 2023-11-25, custom)"
   sodipodi:docname="ptarrow.svg"
   xmlns:inkscape="http://www.inkscape.org/namespaces/inkscape"
   xmlns:sodipodi="http://sodipodi.sourceforge.net/DTD/sodipodi-0.dtd"
   xmlns="http://www.w3.org/2000/svg"
   xmlns:svg="http://www.w3.org/2000/svg"><sodipodi:namedview
     id="namedview1"
     pagecolor="#505050"
     bordercolor="#eeeeee"
     borderopacity="1"
     inkscape:showpageshadow="0"
     inkscape:pageopacity="0"
     inkscape:pagecheckerboard="0"
     inkscape:deskcolor="#505050"
     inkscape:document-units="px"
     inkscape:zoom="0.57666016"
     inkscape:cx="-292.19983"
     inkscape:cy="25.144793"
     inkscape:window-width="3440"
     inkscape:window-height="1377"
     inkscape:window-x="-8"
     inkscape:window-y="-8"
     inkscape:window-maximized="1"
     inkscape:current-layer="layer1" /><defs
     id="defs1" /><g
     inkscape:label="Layer 1"
     inkscape:groupmode="layer"
     id="layer1"><g
       id="g2"
       transform="matrix(1.7603587,0.42713802,-0.42713802,1.7603587,-132.63676,-172.65975)"><path
         style="fill:#000000;fill-opacity:1"
         d="M 322.49338,48.435318 347.01759,58.245002 149.59769,486.8056 H 118.94243 Z"
         id="path1" /><path
         style="fill:#000000;fill-opacity:1"
         d="m 300.42159,154.50253 10.74522,4.49493 5.96105,-12.89754 9.64606,4.44369 6.50296,-13.2227 -10.40474,-4.76884 4.76884,-10.29635 10.72989,4.66045 6.2862,-12.24725 -10.94665,-5.20237 10.51312,-21.134628 10.29636,4.226927 6.39458,-13.331076 -11.05504,-4.660457 5.31076,-10.621507 9.75444,4.335309 6.2862,-12.572397 -12.24725,-6.069432 -5.52752,11.380186 -6.82811,-2.926334 z"
         id="path2" /><path
         style="fill:#000000;fill-opacity:1"
         d="m 278.4352,145.91825 -10.31311,-5.41332 6.13696,-12.81477 -9.57293,-4.59912 6.04202,-13.43958 10.30709,4.97638 4.89287,-10.238 -10.43086,-5.295978 5.42865,-12.65074 10.98657,5.11752 9.58143,-21.573 -9.82048,-5.23833 6.19462,-13.42517 10.63814,5.5465 4.79792,-10.86281 -9.55852,-4.75171 5.67917,-12.85801 12.48372,5.56684 -5.24427,11.51347 6.60747,3.39528 z"
         id="path2-8" /></g><rect
       style="fill:#000000;fill-opacity:1;stroke-width:1.45838"
       id="rect2"
       width="502.74634"
       height="48.188835"
       x="4.9048414"
       y="465.78369"
       ry="7.6621537" /></g></svg>
